<?xml version="1.0" encoding="UTF-8" standalone="no"?><!-- Generator: Gravit.io --><svg xmlns="http://www.w3.org/2000/svg" xmlns:xlink="http://www.w3.org/1999/xlink" style="isolation:isolate" viewBox="0 0 560 315" width="560pt" height="315pt"><defs><clipPath id="_clipPath_k7DhyaeqW5wOE0CDERNBYvqcpV58pSGl"><rect width="560" height="315"/></clipPath></defs><g clip-path="url(#_clipPath_k7DhyaeqW5wOE0CDERNBYvqcpV58pSGl)"><g><g><g><g><path d=" M 26.273 244.975 C 17.756 244.975 13 240.16 13 231.196 L 13 224.72 C 13 215.764 17.705 210.941 26.205 210.941 C 34.081 210.941 38.593 215.073 38.905 222.182 L 35.473 222.182 C 35.093 216.726 31.973 214.061 26.315 214.061 C 19.78 214.061 16.542 217.62 16.542 224.914 L 16.542 231.01 C 16.542 238.321 19.78 241.863 26.315 241.863 C 31.973 241.863 35.076 239.198 35.473 233.743 L 38.905 233.743 C 38.593 240.725 34.199 244.983 26.273 244.983 M 47.354 244.224 L 47.354 197.854 L 50.913 197.854 L 50.913 217.417 C 53.181 213.311 57.532 210.831 62.221 210.941 C 68.958 210.941 72.39 215.014 72.39 222.696 L 72.39 244.224 L 68.832 244.224 L 68.832 223.075 C 68.832 217.105 66.546 214.188 61.656 214.188 C 57.077 214.188 53.535 216.726 50.913 222.637 L 50.913 244.233 L 47.354 244.224 L 47.354 244.224 Z  M 95.377 244.975 C 86.481 244.975 81.599 240.151 81.599 231.196 L 81.599 224.72 C 81.599 215.764 86.371 210.941 95.065 210.941 C 103.759 210.941 108.465 215.764 108.465 224.72 L 108.465 228.725 L 85.157 228.725 L 85.157 230.951 C 85.157 238.321 88.463 241.872 95.259 241.872 C 101.111 241.872 104.417 239.207 104.788 234.695 L 108.22 234.695 C 107.781 241.366 103.068 244.992 95.386 244.992 M 85.157 225.69 L 105.032 225.69 L 105.032 224.99 C 105.032 217.62 101.794 214.07 95.065 214.07 C 88.336 214.07 85.157 217.628 85.157 224.99 L 85.157 225.69 L 85.157 225.69 Z  M 129.546 244.992 C 121.029 244.992 116.273 240.168 116.273 231.213 L 116.273 224.737 C 116.273 215.781 120.978 210.958 129.478 210.958 C 137.354 210.958 141.866 215.09 142.178 222.198 L 138.746 222.198 C 138.375 216.743 135.246 214.078 129.588 214.078 C 123.053 214.078 119.815 217.636 119.815 224.931 L 119.815 231.027 C 119.815 238.338 123.053 241.88 129.588 241.88 C 135.246 241.88 138.349 239.215 138.746 233.759 L 142.178 233.759 C 141.866 240.742 137.472 245 129.546 245 M 150.636 244.241 L 150.636 197.854 L 154.194 197.854 L 154.194 229.805 L 172.349 211.692 L 176.928 211.692 L 163.588 224.964 L 177.19 244.199 L 172.88 244.199 L 161.067 227.494 L 154.202 234.223 L 154.202 244.19 L 150.652 244.19 L 150.636 244.241 L 150.636 244.241 L 150.636 244.241 Z  M 183.286 244.241 L 183.286 211.439 L 188.042 211.439 L 188.236 216.591 C 190.294 212.847 194.265 210.562 198.532 210.688 C 203.111 210.688 206.214 212.644 207.555 216.405 C 209.697 212.779 213.635 210.587 217.851 210.688 C 224.386 210.688 228.021 214.626 228.021 221.87 L 228.021 244.233 L 222.43 244.233 L 222.43 222.317 C 222.43 217.94 220.516 215.84 217.101 215.84 C 213.685 215.84 210.869 217.999 208.457 222.772 L 208.457 244.249 L 202.867 244.249 L 202.867 222.333 C 202.867 217.957 200.952 215.857 197.52 215.857 C 194.088 215.857 191.289 218.016 188.877 223.101 L 188.877 244.249 L 183.269 244.249 L 183.286 244.241 L 183.286 244.241 L 183.286 244.241 Z  M 238.047 244.241 L 238.047 197.854 L 243.638 197.854 L 243.638 227.587 L 258.757 211.455 L 265.739 211.455 L 253.158 224.796 L 265.984 244.233 L 259.314 244.233 L 249.279 228.869 L 243.621 234.771 L 243.621 244.233 L 238.03 244.233 L 238.047 244.241 L 238.047 244.241 L 238.047 244.241 Z " fill="rgb(21,209,160)"/></g></g><path d=" M 139.488 70 L 182.78 95.053 L 182.78 145.151 L 139.488 170.212 L 96.187 145.151 L 96.187 95.053 L 139.488 70 Z  M 111.062 106.479 L 111.062 123.1 L 131.46 109.928 L 131.46 144.231 L 139.505 148.869 L 147.532 144.231 L 147.532 109.928 L 167.914 123.1 L 167.914 106.479 L 139.488 88.661 L 111.062 106.479 L 111.062 106.479 L 111.062 106.479 Z " fill="rgb(21,209,160)"/></g></g><g><path d="M 315 122.5 L 317 122.5 C 318.656 122.5 320 123.844 320 125.5 L 320 189.5 C 320 191.156 318.656 192.5 317 192.5 L 315 192.5 C 313.344 192.5 312 191.156 312 189.5 L 312 125.5 C 312 123.844 313.344 122.5 315 122.5 Z" style="stroke:none;fill:#2E2E2E;stroke-miterlimit:10;"/><path d="M 281 158.5 L 281 156.5 C 281 154.844 282.344 153.5 284 153.5 L 348 153.5 C 349.656 153.5 351 154.844 351 156.5 L 351 158.5 C 351 160.156 349.656 161.5 348 161.5 L 284 161.5 C 282.344 161.5 281 160.156 281 158.5 Z" style="stroke:none;fill:#2E2E2E;stroke-miterlimit:10;"/></g><g><path d=" M 449.109 70.031 C 449.617 70.032 450.125 70.032 450.649 70.033 C 478.226 70.102 478.226 70.102 484.374 75.408 C 487.512 78.862 489.803 82.786 491.675 87.044 C 492.32 88.334 492.32 88.334 493.564 89.167 C 495.393 90.692 496.052 92.323 496.32 94.631 C 496.38 95.902 496.383 97.161 496.367 98.433 C 496.372 98.859 496.378 99.284 496.383 99.723 C 496.363 104.472 495.209 107.669 491.941 111.124 C 490.73 112.265 489.539 113.129 488.099 113.957 C 488.133 114.303 488.168 114.649 488.203 115.006 C 488.523 118.474 488.63 121.895 488.575 125.377 C 489.36 125.692 490.145 126.006 490.954 126.329 C 491.001 128.64 491.036 130.951 491.058 133.262 C 491.068 134.047 491.081 134.832 491.098 135.617 C 491.121 136.75 491.131 137.882 491.14 139.015 C 491.15 139.362 491.159 139.709 491.17 140.067 C 491.171 142.663 490.484 144.153 489.051 146.315 C 490.307 146.472 491.563 146.629 492.857 146.79 C 492.986 146.377 493.114 145.963 493.247 145.536 C 493.79 143.99 494.433 142.614 495.192 141.164 C 495.465 140.64 495.738 140.115 496.02 139.575 C 496.311 139.022 496.602 138.468 496.902 137.898 C 497.204 137.321 497.506 136.744 497.807 136.167 C 498.411 135.012 499.016 133.859 499.622 132.706 C 500.368 131.283 501.111 129.859 501.852 128.433 C 502.798 126.615 503.754 124.802 504.722 122.995 C 505.055 122.372 505.386 121.748 505.714 121.122 C 506.149 120.296 506.596 119.476 507.043 118.656 C 507.282 118.213 507.521 117.77 507.766 117.314 C 508.56 116.336 508.56 116.336 509.755 115.894 C 510.939 115.861 510.939 115.861 512.367 116.812 C 512.701 119.198 512.004 120.714 510.902 122.805 C 510.749 123.1 510.595 123.395 510.437 123.7 C 509.936 124.659 509.427 125.613 508.917 126.567 C 508.569 127.229 508.221 127.892 507.874 128.554 C 505.372 133.312 502.812 138.04 500.211 142.744 C 499.82 143.458 499.431 144.172 499.043 144.887 C 498.853 145.236 498.662 145.585 498.466 145.945 C 498.291 146.277 498.116 146.61 497.935 146.952 C 497.704 147.386 497.704 147.386 497.468 147.829 C 497.084 148.84 497.086 149.581 497.14 150.657 C 497.14 152.86 496.675 153.717 495.237 155.356 C 494.604 155.523 493.97 155.683 493.333 155.831 C 492.602 156.866 492.602 156.866 492.381 158.211 C 492.584 158.796 492.584 158.796 492.79 159.393 C 494.097 163.42 494.306 167.816 494.761 172.01 C 494.802 172.357 494.843 172.704 494.885 173.062 C 495.147 175.432 495.325 177.33 493.991 179.378 C 492.348 181.126 490.839 182.15 488.575 182.955 C 488.521 183.506 488.468 184.057 488.413 184.626 C 488.152 186.69 487.613 188.537 486.88 190.479 C 486.757 190.807 486.634 191.135 486.507 191.473 C 485.289 194.55 483.518 197.045 481.437 199.609 C 481.123 200.08 480.809 200.551 480.485 201.037 C 480.709 201.215 480.933 201.394 481.164 201.577 C 484.964 204.701 484.964 204.701 485.409 207.198 C 485.482 208.204 485.482 208.204 485.244 210.078 C 483.836 211.646 482.575 212.285 480.485 212.457 C 479.521 211.875 479.521 211.875 478.612 211 C 478.288 210.694 477.965 210.389 477.632 210.074 C 477.16 209.605 477.16 209.605 476.679 209.126 C 476.388 208.842 476.098 208.559 475.799 208.267 C 475.133 207.609 474.477 206.941 473.824 206.271 C 473.274 206.457 472.724 206.644 472.158 206.836 C 471.286 207.124 470.414 207.412 469.541 207.698 C 468.954 207.893 468.367 208.088 467.762 208.289 C 467.116 208.499 466.47 208.709 465.823 208.918 C 465.525 209.017 465.227 209.117 464.92 209.22 C 459.646 210.907 454.349 211.222 448.842 211.208 C 448.51 211.208 448.177 211.208 447.835 211.208 C 441.505 211.196 435.355 210.652 429.41 208.345 C 427.508 207.639 426.72 207.552 424.812 208.174 C 423.464 208.965 422.249 209.843 421.031 210.821 C 417.572 213.557 417.572 213.557 415.295 213.408 C 413.313 212.212 412.643 211.606 411.875 209.423 C 411.994 207.123 412.754 205.987 414.343 204.367 C 415.419 203.487 416.503 202.746 417.674 201.988 C 417.406 201.642 417.406 201.642 417.133 201.289 C 413.44 196.453 410.908 192.07 409.912 185.988 C 409.318 182.708 408.282 180.842 405.778 178.672 C 404.972 177.865 405.201 176.897 405.183 175.787 C 405.204 171.074 405.949 166.416 406.599 161.756 C 406.884 159.592 406.884 159.592 406.016 157.675 C 405.78 157.381 405.545 157.086 405.302 156.783 C 405.302 156.469 405.302 156.155 405.302 155.831 C 404.949 155.812 404.596 155.792 404.231 155.772 C 402.923 155.356 402.923 155.356 401.793 154.136 C 401.02 152.501 401.02 152.501 401.356 150.837 C 401.782 147.979 400.383 145.725 399.146 143.222 C 398.905 142.715 398.663 142.209 398.415 141.687 C 396.935 138.595 395.41 135.525 393.851 132.472 C 392.305 129.425 390.922 126.306 389.542 123.181 C 389.37 122.792 389.198 122.404 389.021 122.004 C 388.869 121.656 388.716 121.308 388.559 120.95 C 388.229 120.148 388.229 120.148 387.696 119.667 C 387.577 118.27 387.577 118.27 387.696 116.812 C 389.123 115.861 389.123 115.861 390.254 115.801 C 393.642 117.253 395.298 123.047 396.737 126.21 C 397.003 126.79 397.27 127.371 397.537 127.95 C 398.094 129.163 398.65 130.376 399.206 131.589 C 400.504 134.42 401.818 137.243 403.131 140.067 C 403.794 141.492 404.456 142.918 405.118 144.344 C 405.338 144.818 405.558 145.291 405.784 145.779 C 406.017 146.28 406.017 146.28 406.254 146.79 C 407.667 146.79 409.08 146.79 410.536 146.79 C 410.536 146.162 410.536 145.534 410.536 144.887 C 410.109 144.71 410.109 144.71 409.674 144.53 C 408.371 143.786 407.94 143.36 407.206 142.032 C 406.955 140.46 406.917 138.893 406.878 137.303 C 406.864 136.857 406.849 136.412 406.834 135.952 C 406.807 135.06 406.783 134.168 406.762 133.276 C 406.734 132.201 406.69 131.13 406.637 130.056 C 406.609 129.242 406.609 129.242 406.581 128.411 C 406.554 127.71 406.554 127.71 406.527 126.995 C 406.594 126.618 406.661 126.241 406.73 125.853 C 407.044 125.646 407.358 125.44 407.682 125.227 C 408.747 124.502 408.747 124.502 408.849 123.259 C 408.839 122.808 408.829 122.357 408.819 121.892 C 408.813 121.403 408.807 120.914 408.8 120.41 C 408.784 119.9 408.768 119.39 408.752 118.864 C 408.743 118.349 408.735 117.833 408.726 117.302 C 408.704 116.028 408.672 114.755 408.633 113.481 C 408.162 113.246 408.162 113.246 407.681 113.006 C 407.681 112.692 407.681 112.377 407.681 112.054 C 407.416 111.946 407.151 111.838 406.878 111.727 C 403.918 110.046 402.525 107.58 401.495 104.44 C 400.882 101.638 401.087 99.166 401.495 96.351 C 401.466 95.792 401.437 95.232 401.406 94.656 C 401.54 92.195 402.587 90.657 404.172 88.767 C 404.826 88.262 404.826 88.262 405.778 88.262 C 405.896 87.852 406.014 87.442 406.135 87.02 C 407.952 82.091 412.382 76.498 416.879 73.797 C 426.549 69.538 438.772 69.995 449.109 70.031 Z  M 411.488 82.076 C 411.002 82.702 410.522 83.334 410.061 83.979 C 410.218 84.293 410.375 84.607 410.536 84.931 C 410.949 84.695 411.361 84.46 411.786 84.217 C 415.347 82.707 419.68 83.01 423.235 84.366 C 424.678 84.999 425.659 85.664 426.715 86.834 C 426.954 86.753 427.192 86.672 427.438 86.589 C 430.265 85.683 433.123 85.012 436.024 84.395 C 436.4 84.314 436.776 84.233 437.164 84.15 C 447.775 81.939 459.3 82.293 469.541 85.882 C 470.248 86.118 470.248 86.118 470.969 86.358 C 471.93 85.739 472.88 85.102 473.824 84.455 C 477.715 82.869 482.427 82.885 486.404 84.217 C 486.963 84.453 487.522 84.688 488.099 84.931 C 486.173 81.096 484.2 77.388 480.039 75.741 C 470.226 72.71 459.8 72.389 449.618 72.409 C 447.986 72.41 446.355 72.399 444.724 72.387 C 432.411 72.352 420.288 72.555 411.488 82.076 Z  M 409.585 153.452 C 410.061 154.404 410.061 154.404 410.061 154.404 L 409.585 153.452 Z " fill="rgb(56,171,199)"/><path d=" M 390.254 115.801 C 393.642 117.253 395.298 123.047 396.737 126.21 C 397.003 126.79 397.27 127.371 397.537 127.95 C 398.094 129.163 398.65 130.376 399.206 131.589 C 400.504 134.42 401.818 137.243 403.131 140.067 C 403.794 141.492 404.456 142.918 405.118 144.344 C 405.338 144.818 405.558 145.291 405.784 145.779 C 406.017 146.28 406.017 146.28 406.254 146.79 C 407.667 146.79 409.08 146.79 410.536 146.79 C 410.536 146.162 410.536 145.534 410.536 144.887 C 410.252 144.769 409.967 144.652 409.674 144.53 C 408.371 143.786 407.94 143.36 407.206 142.032 C 406.955 140.46 406.917 138.893 406.878 137.303 C 406.862 136.858 406.847 136.414 406.83 135.955 C 406.718 132.588 406.673 129.222 406.73 125.853 C 407.515 125.539 408.3 125.225 409.109 124.902 C 409.109 125.687 409.109 126.472 409.109 127.281 C 409.717 127.31 410.326 127.34 410.953 127.37 C 413.263 127.601 415.423 128.148 417.644 128.798 C 421.371 129.885 425.123 130.767 428.916 131.593 C 436.281 133.202 436.281 133.202 439.622 134.032 C 440.434 134.233 440.434 134.233 441.262 134.439 C 443.259 134.996 445.216 135.649 447.176 136.322 C 448.862 146.443 450.981 161.073 447.652 171.058 C 447.463 172.619 447.29 174.178 447.141 175.743 C 446.738 179.374 445.681 181.881 442.894 184.382 C 442.58 184.696 442.266 185.01 441.942 185.334 C 437.987 186.791 433.989 186.987 429.812 186.947 C 428.857 186.94 427.903 186.947 426.947 186.956 C 421.632 186.941 416.965 186.155 412.232 183.698 C 411.692 183.424 411.153 183.15 410.598 182.867 C 408.482 181.639 406.553 180.342 405.302 178.196 C 404.423 172.92 405.87 166.986 406.599 161.756 C 406.884 159.592 406.884 159.592 406.016 157.675 C 405.78 157.381 405.545 157.086 405.302 156.783 C 405.302 156.469 405.302 156.155 405.302 155.831 C 404.949 155.812 404.596 155.792 404.231 155.772 C 402.923 155.356 402.923 155.356 401.793 154.136 C 401.02 152.501 401.02 152.501 401.356 150.837 C 401.782 147.979 400.383 145.725 399.146 143.222 C 398.905 142.715 398.663 142.209 398.415 141.687 C 396.935 138.595 395.41 135.525 393.851 132.472 C 392.305 129.425 390.922 126.306 389.542 123.181 C 389.37 122.792 389.198 122.404 389.021 122.004 C 388.869 121.656 388.716 121.308 388.559 120.95 C 388.229 120.148 388.229 120.148 387.696 119.667 C 387.577 118.27 387.577 118.27 387.696 116.812 C 389.123 115.861 389.123 115.861 390.254 115.801 Z  M 409.585 153.452 C 410.061 154.404 410.061 154.404 410.061 154.404 L 409.585 153.452 Z " fill="rgb(237,147,38)"/><path d=" M 511.891 116.336 C 512.367 116.812 512.367 116.812 512.488 118.073 C 512.344 119.973 511.789 121.122 510.902 122.805 C 510.749 123.1 510.595 123.395 510.437 123.7 C 509.936 124.659 509.427 125.613 508.917 126.567 C 508.569 127.229 508.221 127.892 507.874 128.554 C 505.372 133.312 502.812 138.04 500.211 142.744 C 499.82 143.458 499.431 144.172 499.043 144.887 C 498.853 145.236 498.662 145.585 498.466 145.945 C 498.291 146.277 498.116 146.61 497.935 146.952 C 497.781 147.242 497.627 147.531 497.468 147.829 C 497.084 148.84 497.086 149.581 497.14 150.657 C 497.14 152.86 496.675 153.717 495.237 155.356 C 494.255 155.653 494.255 155.653 493.333 155.831 C 493.131 156.13 492.928 156.428 492.72 156.735 C 489.192 161.068 477.44 161.35 472.131 161.922 C 470.147 162.085 468.168 162.076 466.178 162.064 C 465.741 162.063 465.303 162.063 464.853 162.062 C 463.471 162.059 462.09 162.053 460.708 162.047 C 459.765 162.045 458.821 162.043 457.878 162.041 C 455.58 162.035 453.281 162.027 450.983 162.017 C 450.688 144 450.688 144 452.411 136.322 C 459.986 133.979 467.623 132.017 475.336 130.188 C 476.065 130.015 476.794 129.841 477.522 129.668 C 477.87 129.585 478.218 129.502 478.576 129.417 C 480.822 128.877 483.027 128.261 485.217 127.522 C 486.362 127.24 487.4 127.24 488.575 127.281 C 488.575 126.653 488.575 126.025 488.575 125.377 C 489.36 125.692 490.145 126.006 490.954 126.329 C 491.001 128.64 491.036 130.951 491.058 133.262 C 491.068 134.047 491.081 134.832 491.098 135.617 C 491.121 136.75 491.131 137.882 491.14 139.015 C 491.15 139.362 491.159 139.709 491.17 140.067 C 491.171 142.663 490.484 144.153 489.051 146.315 C 490.307 146.472 491.563 146.629 492.857 146.79 C 492.986 146.377 493.114 145.963 493.247 145.536 C 493.79 143.99 494.433 142.614 495.192 141.164 C 495.465 140.64 495.738 140.115 496.02 139.575 C 496.311 139.022 496.602 138.468 496.902 137.898 C 497.204 137.321 497.506 136.744 497.807 136.167 C 498.411 135.012 499.016 133.859 499.622 132.706 C 500.368 131.283 501.111 129.859 501.852 128.433 C 508.592 115.491 508.592 115.491 511.891 116.336 Z " fill="rgb(238,147,37)"/><path d=" M 449.109 70.031 C 449.871 70.032 449.871 70.032 450.649 70.033 C 478.226 70.102 478.226 70.102 484.374 75.408 C 487.512 78.862 489.803 82.786 491.675 87.044 C 492.32 88.334 492.32 88.334 493.564 89.167 C 495.393 90.692 496.052 92.323 496.32 94.631 C 496.38 95.902 496.383 97.161 496.367 98.433 C 496.372 98.859 496.378 99.284 496.383 99.723 C 496.363 104.466 495.218 107.69 491.928 111.124 C 490.177 112.795 488.833 113.784 486.463 114.344 C 483.83 113.743 482.846 111.868 481.437 109.675 C 481.179 109.306 480.921 108.937 480.655 108.558 C 479.842 106.968 479.726 105.619 479.563 103.846 C 479.246 100.88 478.526 98.512 477.154 95.875 C 476.997 95.404 476.84 94.933 476.679 94.448 C 475.548 93.884 475.548 93.884 474.299 93.496 C 472.872 93.02 472.872 93.02 472.316 92.016 C 472.156 91.602 471.996 91.187 471.831 90.76 C 471.585 90.145 471.585 90.145 471.335 89.518 C 470.953 88.209 470.806 87.236 470.969 85.882 C 474.793 82.695 479.05 82.676 483.816 83.027 C 485.227 83.374 486.313 83.813 487.623 84.455 C 486.953 83.451 486.278 82.45 485.601 81.451 C 485.412 81.168 485.224 80.885 485.03 80.593 C 482.124 76.33 478.51 75.641 473.645 74.67 C 465.651 73.241 457.732 72.869 449.618 72.885 C 447.986 72.886 446.355 72.875 444.724 72.863 C 428.037 72.693 428.037 72.693 413.778 80.143 C 412.466 81.485 411.383 82.762 410.536 84.455 C 410.949 84.219 411.361 83.984 411.786 83.741 C 415.355 82.228 419.684 82.529 423.235 83.92 C 424.502 84.494 425.551 85.106 426.715 85.882 C 426.486 88.497 426.234 90.753 424.812 93.02 C 423.743 93.501 422.683 93.798 421.553 94.108 C 419.953 94.639 419.434 95.366 418.626 96.827 C 417.492 99.526 417.168 101.94 417.139 104.857 C 416.957 108.378 415.715 110.233 413.639 112.942 C 412.44 113.957 412.44 113.957 410.94 114.139 C 409.635 113.964 408.795 113.691 407.681 113.006 C 407.681 112.692 407.681 112.377 407.681 112.054 C 407.416 111.946 407.151 111.838 406.878 111.727 C 403.918 110.046 402.525 107.58 401.495 104.44 C 400.882 101.638 401.087 99.166 401.495 96.351 C 401.466 95.792 401.437 95.232 401.406 94.656 C 401.54 92.195 402.587 90.657 404.172 88.767 C 404.826 88.262 404.826 88.262 405.778 88.262 C 405.896 87.852 406.014 87.442 406.135 87.02 C 407.952 82.091 412.382 76.498 416.879 73.797 C 426.549 69.538 438.772 69.995 449.109 70.031 Z " fill="rgb(89,88,88)"/><path d=" M 491.43 157.765 C 492.381 158.211 492.381 158.211 492.868 159.337 C 493.977 163.459 494.301 167.775 494.761 172.01 C 494.802 172.357 494.843 172.704 494.885 173.062 C 495.136 175.33 495.286 177.264 494.142 179.295 C 490.004 183.982 482.884 186.438 476.789 186.896 C 475.176 186.943 473.572 186.962 471.959 186.947 C 470.969 186.94 469.981 186.947 468.991 186.956 C 464.603 186.963 460.062 186.794 456.217 184.471 C 453.106 181.068 452.351 177.524 451.905 173.081 C 451.643 170.367 451.643 170.367 450.983 167.728 C 450.95 166.747 450.943 165.765 450.953 164.783 C 450.958 164.266 450.962 163.749 450.966 163.216 C 450.972 162.821 450.977 162.425 450.983 162.017 C 451.536 162.01 452.089 162.004 452.659 161.996 C 466.889 161.959 466.889 161.959 480.961 160.114 C 481.561 159.993 481.561 159.993 482.172 159.869 C 484.994 159.292 488.673 157.678 491.43 157.765 Z " fill="rgb(228,228,227)"/><path d=" M 468.113 90.314 C 469.553 90.868 470.814 91.438 471.92 92.544 C 471.92 92.858 471.92 93.172 471.92 93.496 C 472.391 93.496 472.862 93.496 473.348 93.496 C 475.272 96.831 475.193 101.19 474.775 104.916 C 473.638 108.137 471.246 110.095 468.231 111.559 C 462.878 113.273 457.342 112.122 452.411 109.675 C 452.254 109.361 452.097 109.047 451.935 108.723 C 451.434 108.731 451.434 108.731 450.924 108.74 C 448.764 108.76 446.74 108.767 444.619 108.336 C 442.844 108.049 442.844 108.049 441.645 109.288 C 441.272 109.73 440.899 110.171 440.515 110.626 C 436.503 113.551 432.99 113.899 428.143 113.481 C 424.96 112.591 422.817 110.489 421.005 107.771 C 420.071 107.496 420.071 107.496 419.042 107.444 C 418.434 107.395 417.825 107.346 417.198 107.295 C 417.349 107.022 417.5 106.75 417.655 106.468 C 417.878 106.064 418.1 105.66 418.328 105.243 C 418.588 104.774 418.849 104.304 419.116 103.82 C 419.84 102.487 420.509 101.133 421.169 99.767 C 421.367 99.366 421.566 98.966 421.77 98.552 C 422.166 97.752 422.553 96.947 422.929 96.138 C 424.111 93.778 425.161 92.424 427.634 91.404 C 429.177 90.954 430.585 90.883 432.187 90.909 C 432.771 90.909 433.355 90.91 433.957 90.91 C 435.756 91.117 435.756 91.117 437.429 91.827 C 440.129 92.919 442.964 92.81 445.839 92.809 C 446.812 92.812 447.782 92.838 448.754 92.865 C 452.616 92.913 455.419 92.349 458.751 90.331 C 461.692 88.849 465.06 89.384 468.113 90.314 Z " fill="rgb(253,254,254)"/><path d=" M 407.681 158.211 C 411.881 158.487 415.853 159.257 419.946 160.201 C 426.538 161.655 433.26 161.644 439.979 161.809 C 440.774 161.83 441.569 161.851 442.364 161.871 C 444.285 161.922 446.207 161.97 448.128 162.017 C 448.141 163.257 448.15 164.496 448.158 165.735 C 448.162 166.086 448.166 166.437 448.17 166.799 C 448.177 168.346 448.145 169.58 447.652 171.058 C 447.463 172.619 447.29 174.178 447.141 175.743 C 446.738 179.374 445.681 181.881 442.894 184.382 C 442.423 184.853 442.423 184.853 441.942 185.334 C 437.987 186.791 433.989 186.987 429.812 186.947 C 428.857 186.94 427.903 186.947 426.947 186.956 C 421.632 186.941 416.965 186.155 412.232 183.698 C 411.692 183.424 411.153 183.15 410.598 182.867 C 408.482 181.639 406.553 180.342 405.302 178.196 C 404.648 174.272 405.484 169.973 405.956 166.062 C 406.016 165.562 406.076 165.062 406.138 164.547 C 406.199 164.07 406.261 163.594 406.324 163.103 C 406.379 162.676 406.434 162.25 406.491 161.81 C 406.743 160.523 407.158 159.41 407.681 158.211 Z " fill="rgb(228,227,226)"/><path d=" M 470.969 86.358 C 471.524 87.546 471.524 87.546 472.009 88.946 C 472.173 89.406 472.337 89.867 472.506 90.342 C 472.872 91.593 472.872 91.593 472.872 93.02 C 473.387 93.064 473.387 93.064 473.913 93.109 C 475.75 93.64 476.424 94.391 477.63 95.875 C 480.467 101.111 480.836 106.801 479.207 112.53 C 478.475 114.89 477.609 116.602 475.727 118.24 C 474.026 118.547 472.414 118.401 470.701 118.24 C 470.235 118.207 469.768 118.174 469.288 118.141 C 466.01 117.891 462.764 117.511 459.548 116.812 C 459.642 117.177 459.736 117.542 459.833 117.918 C 460.024 119.192 460.024 119.192 459.281 120.53 C 457.828 121.833 457.154 121.661 455.266 121.571 C 455.288 121.966 455.31 122.362 455.333 122.77 C 455.35 123.287 455.367 123.804 455.385 124.337 C 455.407 124.85 455.429 125.363 455.452 125.892 C 455.266 127.281 455.266 127.281 454.383 128.203 C 453.362 128.708 453.362 128.708 452.143 128.322 C 451.76 128.135 451.377 127.949 450.983 127.757 C 449.468 127.625 449.468 127.625 448.128 128.708 C 446.938 128.679 446.938 128.679 445.749 128.233 C 444.121 126.436 444.192 124.724 444.271 122.424 C 444.288 122.142 444.304 121.861 444.321 121.571 C 443.958 121.6 443.595 121.63 443.221 121.66 C 441.942 121.571 441.942 121.571 441.08 121.095 C 440.17 119.563 440.157 118.036 440.515 116.336 C 441.585 114.909 441.585 114.909 442.894 113.957 C 444.797 113.957 444.797 113.957 445.6 114.671 C 447.317 115.785 448.993 115.645 450.983 115.385 C 452.18 115.005 453.189 114.532 454.314 113.957 C 454.414 111.987 454.414 111.987 453.838 110.151 C 454.128 110.254 454.417 110.357 454.715 110.463 C 459.538 111.995 464.96 112.702 469.63 110.388 C 471.867 108.933 473.521 107.524 474.299 104.916 C 474.726 101.03 474.321 97.269 473.348 93.496 C 472.877 93.496 472.406 93.496 471.92 93.496 C 471.92 93.182 471.92 92.868 471.92 92.544 C 468.061 90.563 464.394 89.52 460.024 90.165 C 458.728 90.797 458.728 90.797 457.453 91.593 C 454.257 93.257 451.318 93.412 447.79 93.314 C 446.814 93.288 445.839 93.285 444.862 93.285 C 441.444 93.24 438.886 92.915 435.756 91.593 C 433.933 91.37 433.933 91.37 432.128 91.414 C 431.235 91.409 431.235 91.409 430.325 91.403 C 428.506 91.605 427.363 92.171 425.763 93.02 C 425.449 92.863 425.135 92.706 424.812 92.544 C 425.862 87.557 425.862 87.557 427.583 86.098 C 428.872 85.549 430.104 85.233 431.474 84.931 C 431.815 84.85 432.157 84.77 432.509 84.687 C 443.747 82.045 460.755 79.55 470.969 86.358 Z " fill="rgb(174,220,232)"/><path d=" M 425.288 84.931 C 425.759 85.245 426.23 85.559 426.715 85.882 C 426.486 88.497 426.234 90.753 424.812 93.02 C 423.743 93.501 422.683 93.798 421.553 94.108 C 419.953 94.639 419.434 95.366 418.626 96.827 C 417.492 99.526 417.168 101.94 417.139 104.857 C 416.957 108.378 415.715 110.233 413.639 112.942 C 412.44 113.957 412.44 113.957 410.94 114.139 C 409.635 113.964 408.795 113.691 407.681 113.006 C 407.681 112.692 407.681 112.377 407.681 112.054 C 407.416 111.946 407.151 111.838 406.878 111.727 C 403.919 110.047 402.523 107.58 401.495 104.44 C 400.948 101.903 400.758 99.335 401.495 96.827 C 402.863 95.786 402.863 95.786 404.35 94.924 C 405.941 93.162 406.576 91.256 407.146 88.975 C 407.965 86.428 409.081 85.076 411.429 83.83 C 416.021 81.977 421.003 82.625 425.288 84.931 Z " fill="rgb(89,88,88)"/><path d=" M 439.563 92.544 C 442.062 94.646 444.101 97.216 444.468 100.531 C 444.622 104.455 444.107 107.158 441.466 110.151 C 440.27 111.139 439.066 111.879 437.659 112.53 C 437.3 112.703 436.941 112.876 436.57 113.054 C 433.431 114.094 428.97 114.109 425.942 112.678 C 423.866 111.406 422.351 109.79 421.005 107.771 C 420.071 107.496 420.071 107.496 419.042 107.444 C 418.434 107.395 417.825 107.346 417.198 107.295 C 417.349 107.022 417.5 106.75 417.655 106.468 C 417.878 106.064 418.1 105.66 418.328 105.243 C 418.588 104.774 418.849 104.304 419.116 103.82 C 419.84 102.487 420.509 101.133 421.169 99.767 C 421.367 99.366 421.566 98.966 421.77 98.552 C 422.166 97.752 422.553 96.947 422.929 96.138 C 424.111 93.778 425.161 92.424 427.634 91.404 C 431.485 90.282 436.041 90.653 439.563 92.544 Z " fill="rgb(253,254,254)"/><path d=" M 470.969 86.358 C 471.452 87.572 471.867 88.742 472.247 89.987 C 472.408 90.491 472.408 90.491 472.572 91.005 C 472.835 91.834 473.092 92.665 473.348 93.496 C 472.877 93.496 472.406 93.496 471.92 93.496 C 471.92 93.182 471.92 92.868 471.92 92.544 C 468.061 90.563 464.394 89.52 460.024 90.165 C 458.728 90.797 458.728 90.797 457.453 91.593 C 454.257 93.257 451.318 93.412 447.79 93.314 C 446.814 93.288 445.839 93.285 444.862 93.285 C 441.444 93.24 438.886 92.915 435.756 91.593 C 433.933 91.37 433.933 91.37 432.128 91.414 C 431.235 91.409 431.235 91.409 430.325 91.403 C 428.506 91.605 427.363 92.171 425.763 93.02 C 425.449 92.863 425.135 92.706 424.812 92.544 C 425.862 87.557 425.862 87.557 427.583 86.098 C 428.872 85.549 430.104 85.233 431.474 84.931 C 431.815 84.85 432.157 84.77 432.509 84.687 C 443.747 82.045 460.755 79.55 470.969 86.358 Z " fill="rgb(56,171,199)"/><path d=" M 441.942 224.829 C 443.788 225.003 443.788 225.003 444.886 224.145 C 447.27 222.821 449.844 222.689 452.5 223.223 C 454.477 223.827 455.776 224.698 457.169 226.256 C 458.13 228.436 458.249 230.048 457.645 232.353 C 456.446 234.264 455.145 235.34 452.987 236.056 C 451.603 236.31 450.278 236.312 448.872 236.308 C 448.342 236.31 447.813 236.311 447.267 236.312 C 445.909 236.256 444.69 236.084 443.37 235.773 C 443.433 237.715 443.433 237.715 443.845 239.58 C 446.916 241.919 450.73 240.987 454.314 240.532 C 454.55 241.709 454.55 241.709 454.79 242.911 C 451.957 244.721 449.555 245.131 446.225 244.814 C 444.222 244.272 442.337 243.422 440.515 242.435 C 440.083 242.739 439.651 243.043 439.206 243.357 C 436.647 244.981 434.334 245.224 431.325 244.578 C 429.575 244.069 428.352 243.564 426.953 242.375 C 425.974 240.5 425.674 238.835 425.763 236.725 C 426.56 234.242 427.775 233.193 430.046 231.966 C 433.295 230.883 437.195 231.389 440.515 231.966 C 440.505 231.368 440.495 230.769 440.485 230.152 C 440.479 229.815 440.474 229.479 440.468 229.132 C 440.079 227.994 440.079 227.994 438.596 227.312 C 436.588 226.56 434.796 226.663 432.693 226.881 C 432.171 226.924 432.171 226.924 431.638 226.969 C 430.789 227.041 429.942 227.123 429.094 227.208 C 429.031 226.07 429.031 226.07 429.094 224.829 C 432.789 221.786 438.056 222.7 441.942 224.829 Z  M 444.842 228.533 C 444.136 229.962 444.012 231.344 443.845 232.918 C 445.066 232.983 446.282 233.03 447.503 233.067 C 448.018 233.097 448.018 233.097 448.543 233.127 C 450.538 233.173 451.252 233.078 452.894 231.812 C 453.981 230.604 453.981 230.604 453.868 229.052 C 453.448 227.695 453.448 227.695 452.649 226.792 C 449.433 225.345 447.048 225.83 444.842 228.533 Z  M 431.013 235.914 C 429.891 237.163 429.891 237.163 429.927 238.926 C 430.384 240.66 430.384 240.66 432.039 241.483 C 433.939 241.982 434.863 242.125 436.708 241.483 C 439.063 239.717 439.573 238.091 440.039 235.297 C 439.098 234.357 437.391 234.669 436.113 234.643 C 435.795 234.625 435.476 234.607 435.148 234.589 C 433.291 234.556 432.496 234.766 431.013 235.914 Z " fill="rgb(55,171,200)"/><path d=" M 449.109 70.031 C 449.871 70.032 449.871 70.032 450.649 70.033 C 478.226 70.102 478.226 70.102 484.374 75.408 C 487.512 78.862 489.803 82.786 491.675 87.044 C 492.5 88.466 493.465 89.172 494.761 90.165 C 495.91 92.304 496.366 93.928 496.188 96.351 C 495.56 96.508 494.932 96.665 494.285 96.827 C 492.361 94.741 491.402 92.964 490.538 90.284 C 489.379 86.968 487.902 84.37 485.72 81.6 C 485.466 81.213 485.213 80.826 484.952 80.427 C 482.093 76.218 478.369 75.617 473.586 74.641 C 465.611 73.243 457.707 72.869 449.618 72.885 C 447.986 72.886 446.355 72.875 444.724 72.863 C 428.18 72.68 428.18 72.68 413.957 79.934 C 410.619 83.381 407.559 86.782 406.73 91.593 C 405.906 93.541 405.075 95.03 403.399 96.351 C 402.771 96.351 402.143 96.351 401.495 96.351 C 401.226 93.049 402.066 91.278 404.172 88.767 C 404.826 88.262 404.826 88.262 405.778 88.262 C 405.896 87.852 406.014 87.442 406.135 87.02 C 407.952 82.091 412.382 76.498 416.879 73.797 C 426.549 69.538 438.772 69.995 449.109 70.031 Z " fill="rgb(53,52,52)"/><path d=" M 424.812 93.02 C 420.288 102.832 420.288 102.832 417.674 106.82 C 418.184 106.839 418.695 106.859 419.221 106.879 C 421.531 107.418 421.668 108.196 422.908 110.151 C 426.76 113.114 430.543 113.448 435.28 113.006 C 437.013 112.402 438.479 111.578 440.039 110.626 C 440.51 110.469 440.981 110.312 441.466 110.151 C 441.702 109.679 441.702 109.679 441.942 109.199 C 442.418 108.247 442.418 108.247 443.845 107.771 C 444.755 107.881 445.664 107.993 446.57 108.124 C 448.357 108.327 450.14 108.285 451.935 108.247 C 452.092 108.718 452.249 109.189 452.411 109.675 C 453.346 110.222 453.346 110.222 454.314 110.626 C 454.79 111.102 454.79 111.102 454.82 112.559 C 454.81 113.021 454.8 113.482 454.79 113.957 C 452.09 115.528 449.855 116.484 446.7 115.861 C 445.243 114.909 445.243 114.909 444.321 113.957 C 442.583 114.552 442.046 114.752 440.99 116.336 C 440.805 117.283 440.642 118.235 440.515 119.192 C 440.279 118.249 440.279 118.249 440.039 117.288 C 439.536 117.357 439.034 117.426 438.516 117.496 C 434.397 118.028 430.273 118.387 426.12 118.507 C 425.492 118.544 425.492 118.544 424.851 118.581 C 423.158 118.606 421.971 118.617 420.598 117.561 C 416.963 113.476 416.366 108.775 416.57 103.507 C 416.819 99.656 417.74 96.693 420.529 93.972 C 421.995 92.964 423.066 92.991 424.812 93.02 Z " fill="rgb(171,219,231)"/><path d=" M 488.575 214.836 C 489.752 215.307 489.752 215.307 490.954 215.788 C 491.111 220.97 491.268 226.152 491.43 231.491 C 493.314 229.763 495.198 228.036 497.14 226.256 C 499.995 223.877 499.995 223.877 501.333 223.699 C 502.374 223.877 502.374 223.877 502.85 224.353 C 503.069 225.388 503.069 225.388 502.85 226.732 C 501.962 227.853 500.902 228.75 499.816 229.676 C 499.529 229.93 499.242 230.184 498.947 230.445 C 498.414 230.916 497.878 231.384 497.34 231.848 C 496.778 232.342 496.241 232.865 495.712 233.394 C 495.94 233.629 496.169 233.864 496.404 234.106 C 497.436 235.174 498.463 236.247 499.489 237.32 C 499.848 237.689 500.208 238.059 500.578 238.44 C 500.92 238.799 501.262 239.158 501.614 239.528 C 502.089 240.021 502.089 240.021 502.573 240.525 C 503.361 241.528 503.703 242.118 503.802 243.387 C 503.488 243.858 503.174 244.329 502.85 244.814 C 501.137 244.679 500.221 244.537 498.913 243.385 C 498.583 242.983 498.253 242.581 497.913 242.167 C 496.235 240.185 494.5 238.338 492.634 236.531 C 491.906 235.773 491.906 235.773 491.43 234.821 C 491.42 235.09 491.411 235.359 491.401 235.636 C 491.356 236.852 491.304 238.067 491.251 239.282 C 491.229 239.917 491.229 239.917 491.207 240.565 C 491.188 240.97 491.17 241.375 491.151 241.792 C 491.136 242.166 491.121 242.539 491.106 242.924 C 490.954 243.862 490.954 243.862 490.002 244.814 C 488.515 244.636 488.515 244.636 487.147 244.338 C 486.665 242.892 486.603 241.89 486.587 240.376 C 486.581 239.859 486.575 239.341 486.569 238.808 C 486.565 238.248 486.562 237.689 486.558 237.113 C 486.554 236.539 486.55 235.965 486.546 235.373 C 486.54 234.157 486.535 232.942 486.531 231.726 C 486.523 229.864 486.502 228.002 486.481 226.14 C 486.476 224.96 486.472 223.78 486.469 222.6 C 486.46 222.042 486.452 221.484 486.443 220.909 C 486.445 220.389 486.446 219.87 486.448 219.335 C 486.445 218.879 486.442 218.422 486.439 217.952 C 486.735 216.404 487.39 215.834 488.575 214.836 Z " fill="rgb(51,51,51)"/><path d=" M 443.37 113.481 C 444.556 114.054 445.597 114.649 446.7 115.385 C 449.049 115.783 450.931 115.538 453.005 114.374 C 454.653 113.465 454.653 113.465 456.039 113.63 C 457.664 114.785 458.979 116.055 460.024 117.764 C 460.057 119.226 459.77 119.804 458.983 121.006 C 457.755 121.81 456.704 121.608 455.266 121.571 C 455.288 121.966 455.31 122.362 455.333 122.77 C 455.358 123.545 455.358 123.545 455.385 124.337 C 455.407 124.85 455.429 125.363 455.452 125.892 C 455.266 127.281 455.266 127.281 454.383 128.203 C 453.362 128.708 453.362 128.708 452.143 128.322 C 451.76 128.135 451.377 127.949 450.983 127.757 C 449.468 127.625 449.468 127.625 448.128 128.708 C 446.938 128.679 446.938 128.679 445.749 128.233 C 444.121 126.436 444.192 124.724 444.271 122.424 C 444.296 122.002 444.296 122.002 444.321 121.571 C 443.958 121.6 443.595 121.63 443.221 121.66 C 441.942 121.571 441.942 121.571 441.08 121.095 C 440.172 119.567 440.148 118.032 440.515 116.336 C 441.674 114.939 441.674 114.939 442.894 113.957 C 443.051 113.8 443.208 113.643 443.37 113.481 Z " fill="rgb(243,209,162)"/><path d=" M 494.761 177.72 C 490.416 183.036 485.352 185.571 478.582 186.761 C 476.371 186.929 474.175 186.968 471.959 186.947 C 470.969 186.94 469.981 186.947 468.991 186.956 C 464.569 186.963 460.006 186.798 456.158 184.412 C 455.305 183.474 454.85 182.662 454.314 181.527 C 454.783 181.52 455.251 181.513 455.734 181.506 C 473.251 181.342 473.251 181.342 490.396 178.086 C 491.911 177.719 493.209 177.652 494.761 177.72 Z " fill="rgb(236,149,43)"/><path d=" M 405.302 177.72 C 407.601 177.95 409.8 178.337 412.053 178.85 C 413.291 179.114 414.53 179.373 415.771 179.624 C 416.089 179.689 416.408 179.754 416.736 179.822 C 426.104 181.656 435.764 181.404 445.273 181.527 C 444.105 183.688 443.084 184.901 440.766 185.779 C 437.093 186.731 433.602 186.983 429.812 186.947 C 428.857 186.94 427.903 186.947 426.947 186.956 C 421.632 186.941 416.965 186.155 412.232 183.698 C 411.423 183.287 411.423 183.287 410.598 182.867 C 408.197 181.473 406.606 180.19 405.302 177.72 Z " fill="rgb(236,148,42)"/><path d=" M 493.809 165.824 C 493.809 166.923 493.809 168.023 493.809 169.155 C 489.062 170.768 484.345 171.852 479.385 172.605 C 478.62 172.721 478.62 172.721 477.84 172.84 C 471.766 173.719 465.794 173.98 459.667 173.943 C 458.96 173.941 458.252 173.939 457.545 173.937 C 455.833 173.932 454.122 173.923 452.411 173.913 C 452.254 172.5 452.097 171.087 451.935 169.631 C 452.277 169.633 452.618 169.636 452.971 169.638 C 465.749 169.719 478.256 169.478 490.681 166.101 C 491.906 165.824 491.906 165.824 493.809 165.824 Z " fill="rgb(238,150,45)"/><path d=" M 406.254 165.824 C 407.855 166.074 409.439 166.365 411.022 166.713 C 423.072 169.291 435.361 169.93 447.652 169.631 C 447.495 171.044 447.338 172.457 447.176 173.913 C 439.341 174.011 431.631 174.095 423.86 172.962 C 423.283 172.899 422.706 172.835 422.111 172.77 C 418.455 172.358 414.92 171.656 411.339 170.821 C 410.898 170.719 410.458 170.617 410.003 170.512 C 409.592 170.413 409.181 170.313 408.758 170.211 C 408.389 170.122 408.021 170.034 407.642 169.942 C 406.73 169.631 406.73 169.631 405.778 168.679 C 405.956 167.192 405.956 167.192 406.254 165.824 Z " fill="rgb(238,150,45)"/><path d=" M 471.058 214.806 C 471.833 214.813 471.833 214.813 472.625 214.819 C 473.02 214.825 473.416 214.83 473.824 214.836 C 474.121 215.966 474.121 215.966 474.299 217.215 C 472.869 218.646 471.528 218.45 469.541 218.643 C 468.984 220.537 468.467 222.41 468.113 224.353 C 469.684 224.353 471.254 224.353 472.872 224.353 C 472.872 225.138 472.872 225.923 472.872 226.732 C 471.342 227.497 469.809 227.235 468.113 227.208 C 468.118 227.707 468.123 228.207 468.129 228.722 C 468.146 230.571 468.157 232.421 468.166 234.271 C 468.171 235.073 468.177 235.874 468.185 236.675 C 468.197 237.826 468.202 238.976 468.206 240.126 C 468.211 240.486 468.216 240.845 468.221 241.215 C 468.221 242.098 468.172 242.981 468.113 243.862 C 467.799 244.176 467.485 244.491 467.162 244.814 C 464.994 244.55 464.994 244.55 464.307 243.862 C 464.265 242.628 464.252 241.407 464.26 240.173 C 464.261 239.804 464.262 239.435 464.262 239.055 C 464.265 237.872 464.271 236.689 464.277 235.505 C 464.279 234.705 464.282 233.905 464.283 233.105 C 464.289 231.139 464.297 229.174 464.307 227.208 C 463.644 227.237 463.644 227.237 462.968 227.267 C 461.452 227.208 461.452 227.208 460.024 226.256 C 460.181 225.628 460.338 225 460.5 224.353 C 461.756 224.353 463.012 224.353 464.307 224.353 C 464.265 223.733 464.265 223.733 464.223 223.1 C 464.026 218.062 464.026 218.062 465.407 216.382 C 467.307 214.792 468.656 214.78 471.058 214.806 Z " fill="rgb(51,51,51)"/><path d=" M 404.35 217.215 C 404.35 219.571 404.35 221.926 404.35 224.353 C 405.921 224.353 407.491 224.353 409.109 224.353 C 409.266 224.981 409.423 225.609 409.585 226.256 C 408.157 227.208 408.157 227.208 404.35 227.208 C 404.586 234.039 404.586 234.039 404.826 241.007 C 406.24 241.164 407.653 241.321 409.109 241.483 C 409.423 241.797 409.737 242.111 410.061 242.435 C 409.882 243.684 409.882 243.684 409.585 244.814 C 408.604 244.866 407.622 244.903 406.64 244.933 C 406.094 244.955 405.547 244.977 404.984 245 C 403.005 244.768 402.323 244.42 401.02 242.911 C 399.701 239.684 399.955 236.068 400.008 232.65 C 400.013 232.125 400.017 231.6 400.021 231.058 C 400.033 229.775 400.048 228.491 400.068 227.208 C 398.969 227.051 397.869 226.894 396.737 226.732 C 396.58 226.261 396.423 225.79 396.261 225.305 C 396.418 224.99 396.575 224.676 396.737 224.353 C 397.842 224.159 398.953 223.999 400.068 223.877 C 400.097 223.516 400.126 223.154 400.155 222.782 C 400.195 222.309 400.235 221.836 400.276 221.349 C 400.315 220.88 400.353 220.411 400.393 219.927 C 400.544 218.643 400.544 218.643 401.02 217.215 C 401.971 216.739 401.971 216.739 404.35 217.215 Z " fill="rgb(51,51,51)"/><path d=" M 511.891 116.336 C 512.367 116.812 512.367 116.812 512.488 118.073 C 512.344 119.973 511.789 121.122 510.902 122.805 C 510.748 123.1 510.595 123.396 510.436 123.7 C 509.936 124.659 509.426 125.613 508.917 126.567 C 508.57 127.226 508.224 127.886 507.878 128.546 C 504.996 134.027 502.048 139.473 499.043 144.887 C 498.756 144.658 498.469 144.429 498.173 144.194 C 497.021 143.375 496.147 143.176 494.761 142.984 C 495.424 140.795 496.326 138.826 497.408 136.82 C 497.656 136.353 497.656 136.353 497.909 135.877 C 498.443 134.874 498.981 133.873 499.519 132.872 C 499.887 132.185 500.255 131.497 500.622 130.81 C 501.678 128.838 502.739 126.87 503.802 124.902 C 504.076 124.393 504.35 123.884 504.632 123.36 C 505.293 122.137 505.958 120.916 506.627 119.697 C 506.814 119.352 507.002 119.007 507.195 118.651 C 508.579 116.155 509.088 115.618 511.891 116.336 Z " fill="rgb(210,226,97)"/><path d=" M 390.254 115.801 C 393.711 117.283 395.393 123.26 396.856 126.478 C 397.264 127.368 397.672 128.257 398.081 129.147 C 398.353 129.739 398.624 130.331 398.896 130.924 C 400.274 133.929 401.698 136.912 403.142 139.886 C 404.35 142.405 404.35 142.405 404.35 143.46 C 403.947 143.546 403.947 143.546 403.534 143.634 C 403.185 143.714 402.836 143.794 402.477 143.876 C 401.955 143.992 401.955 143.992 401.423 144.11 C 400.445 144.33 400.445 144.33 400.068 145.363 C 399.837 144.867 399.607 144.372 399.369 143.861 C 397.753 140.402 396.117 136.959 394.387 133.556 C 392.658 130.149 391.085 126.677 389.543 123.182 C 389.371 122.793 389.199 122.404 389.021 122.004 C 388.869 121.656 388.716 121.308 388.559 120.95 C 388.229 120.148 388.229 120.148 387.696 119.667 C 387.577 118.27 387.577 118.27 387.696 116.812 C 389.123 115.861 389.123 115.861 390.254 115.801 Z " fill="rgb(210,226,97)"/><path d=" M 475.251 83.979 C 475.413 84.73 475.413 84.73 475.578 85.496 C 477.556 93.219 481.631 100.214 485.66 107.028 C 485.83 107.317 486 107.607 486.175 107.905 C 487.136 109.496 488.153 110.8 489.526 112.054 C 489.051 113.481 489.051 113.481 488.099 113.957 C 486.582 114.255 486.582 114.255 484.768 113.957 C 483.433 112.677 482.434 111.226 481.437 109.675 C 481.179 109.306 480.921 108.937 480.655 108.558 C 479.842 106.968 479.726 105.619 479.563 103.846 C 479.246 100.88 478.526 98.512 477.154 95.875 C 476.997 95.404 476.84 94.933 476.679 94.448 C 475.548 93.884 475.548 93.884 474.299 93.496 C 472.872 93.02 472.872 93.02 472.316 92.016 C 472.156 91.602 471.996 91.187 471.831 90.76 C 471.667 90.35 471.503 89.94 471.335 89.518 C 470.952 88.207 470.799 87.238 470.969 85.882 C 472.459 84.657 473.297 83.979 475.251 83.979 Z " fill="rgb(148,3,3)"/><path d=" M 425.288 224.353 C 425.288 225.138 425.288 225.923 425.288 226.732 C 425 226.813 424.713 226.894 424.418 226.977 C 421.374 227.898 421.374 227.898 419.102 230.063 C 418.598 231.573 418.544 232.715 418.509 234.303 C 418.493 234.852 418.477 235.401 418.461 235.967 C 418.432 237.128 418.405 238.29 418.379 239.451 C 418.363 239.999 418.347 240.548 418.33 241.113 C 418.318 241.618 418.306 242.122 418.294 242.641 C 418.15 243.862 418.15 243.862 417.198 244.814 C 415.741 244.695 415.741 244.695 414.343 244.338 C 413.57 242.791 413.78 241.089 413.771 239.388 C 413.768 238.992 413.765 238.595 413.762 238.187 C 413.758 237.347 413.755 236.507 413.753 235.668 C 413.748 234.382 413.734 233.097 413.719 231.811 C 413.716 230.996 413.713 230.181 413.711 229.366 C 413.705 228.981 413.699 228.596 413.693 228.199 C 413.704 225.514 413.704 225.514 414.515 224.474 C 415.295 223.877 415.295 223.877 416.514 223.937 C 417.674 224.353 417.674 224.353 418.626 225.78 C 418.969 225.476 419.313 225.172 419.667 224.858 C 421.708 223.362 423.093 222.971 425.288 224.353 Z " fill="rgb(51,51,51)"/><path d=" M 422.908 84.455 C 424.514 84.715 425.327 84.957 426.715 85.882 C 426.486 88.497 426.234 90.753 424.812 93.02 C 423.743 93.501 422.683 93.798 421.553 94.108 C 419.953 94.639 419.434 95.366 418.626 96.827 C 417.492 99.526 417.168 101.94 417.139 104.857 C 416.957 108.378 415.715 110.233 413.639 112.942 C 412.44 113.957 412.44 113.957 410.94 114.139 C 409.635 113.964 408.795 113.691 407.681 113.006 C 408.453 111.308 409.479 109.877 410.566 108.366 C 415.653 101.141 420.196 92.878 422.908 84.455 Z " fill="rgb(148,3,3)"/><path d=" M 418.564 202.066 C 419.889 202.586 421.002 203.294 422.195 204.07 C 422.864 204.502 422.864 204.502 423.548 204.944 C 424.631 205.673 425.68 206.427 426.715 207.223 C 426.456 207.356 426.196 207.489 425.929 207.626 C 423.855 208.728 422.016 209.89 420.202 211.386 C 417.41 213.596 417.41 213.596 415.295 213.408 C 413.313 212.212 412.643 211.606 411.875 209.423 C 412.013 206.75 413.239 205.366 415.178 203.613 C 417.298 201.955 417.298 201.955 418.564 202.066 Z " fill="rgb(245,209,162)"/><path d=" M 473.348 93.02 C 475.381 93.791 476.899 94.493 478.106 96.351 C 480.023 100.695 481.071 106.014 479.534 110.626 C 476.236 110.626 472.938 110.626 469.541 110.626 C 470.326 109.998 471.111 109.37 471.92 108.723 C 473.963 106.594 474.463 104.598 474.508 101.675 C 474.403 98.728 474.004 95.892 473.348 93.02 Z " fill="rgb(215,237,243)"/><path d=" M 478.106 223.877 C 479.593 224.055 479.593 224.055 480.961 224.353 C 481.552 226.125 481.505 227.772 481.5 229.617 C 481.501 229.992 481.501 230.367 481.502 230.753 C 481.502 231.545 481.501 232.337 481.499 233.129 C 481.497 234.341 481.499 235.553 481.502 236.766 C 481.502 237.535 481.501 238.305 481.5 239.074 C 481.501 239.437 481.502 239.8 481.503 240.174 C 481.496 241.689 481.444 242.891 480.961 244.338 C 479.593 244.636 479.593 244.636 478.106 244.814 C 476.84 243.548 477.036 242.599 477.022 240.877 C 477.024 240.469 477.026 240.06 477.028 239.639 C 477.027 239.22 477.026 238.802 477.025 238.37 C 477.025 237.484 477.026 236.597 477.03 235.711 C 477.035 234.351 477.03 232.992 477.024 231.632 C 477.025 230.772 477.026 229.912 477.028 229.052 C 477.026 228.643 477.024 228.235 477.022 227.814 C 477.045 224.938 477.045 224.938 478.106 223.877 Z " fill="rgb(51,51,51)"/><path d=" M 480.24 201.077 C 481.68 201.601 482.257 202.206 483.221 203.386 C 483.504 203.724 483.786 204.062 484.076 204.41 C 485.256 205.961 485.434 207.177 485.409 209.139 C 485.244 210.078 485.244 210.078 484.203 211.237 C 482.864 211.981 482.002 212.33 480.485 212.457 C 479.537 211.892 479.537 211.892 478.641 211.029 C 478.158 210.572 478.158 210.572 477.664 210.105 C 477.339 209.782 477.014 209.459 476.679 209.126 C 476.354 208.808 476.028 208.489 475.693 208.161 C 474.904 207.38 474.122 206.591 473.348 205.795 C 473.672 205.54 473.995 205.285 474.329 205.022 C 475.087 204.409 475.838 203.786 476.543 203.113 C 476.963 202.718 476.963 202.718 477.392 202.315 C 477.652 202.062 477.913 201.809 478.18 201.548 C 479.058 201.037 479.058 201.037 480.24 201.077 Z " fill="rgb(244,209,162)"/><path d=" M 455.266 121.571 C 455.317 122.492 455.354 123.414 455.385 124.337 C 455.407 124.85 455.429 125.363 455.452 125.892 C 455.266 127.281 455.266 127.281 454.383 128.203 C 453.362 128.708 453.362 128.708 452.143 128.322 C 451.76 128.135 451.377 127.949 450.983 127.757 C 449.468 127.625 449.468 127.625 448.128 128.708 C 446.938 128.679 446.938 128.679 445.749 128.233 C 444.121 126.436 444.192 124.724 444.271 122.424 C 444.288 122.142 444.304 121.861 444.321 121.571 C 448.309 119.902 451.284 119.879 455.266 121.571 Z " fill="rgb(250,253,253)"/><path d=" M 404.826 143.46 C 406.254 146.612 406.254 146.612 406.254 148.218 C 405.783 148.532 405.312 148.846 404.826 149.17 C 404.983 149.955 405.14 150.74 405.302 151.549 C 406.082 151.593 406.082 151.593 406.878 151.638 C 408.633 152.025 408.633 152.025 409.555 153.066 C 410.144 154.625 410.347 155.61 410.061 157.259 C 408.99 158.211 408.99 158.211 407.681 158.687 C 406.611 158.419 406.611 158.419 405.778 157.735 C 405.421 156.724 405.421 156.724 405.302 155.831 C 404.949 155.812 404.596 155.792 404.231 155.772 C 402.923 155.356 402.923 155.356 401.793 154.136 C 400.777 151.988 401.122 151.008 401.495 148.694 C 401.079 147.663 401.079 147.663 400.544 146.79 C 400.395 145.541 400.395 145.541 400.544 144.411 C 402.178 143.321 402.916 143.375 404.826 143.46 Z " fill="rgb(5,5,4)"/><path d=" M 494.285 142.984 C 496.86 142.812 496.86 142.812 498.062 143.549 C 498.567 144.411 498.567 144.411 498.478 145.571 C 498.092 146.79 498.092 146.79 497.586 147.653 C 497.013 148.788 497.013 148.788 497.199 150.538 C 497.254 152.626 496.63 153.769 495.237 155.356 C 494.255 155.653 494.255 155.653 493.333 155.831 C 492.498 156.772 492.498 156.772 491.906 157.735 C 489.17 157.378 489.17 157.378 488.099 156.307 C 488.25 154.44 488.757 152.954 490.002 151.549 C 491.311 151.362 492.477 151.463 493.809 151.549 C 494.401 151.053 494.401 151.053 494.434 149.973 C 494.242 148.329 493.619 147.835 492.381 146.79 C 493.01 145.534 493.638 144.278 494.285 142.984 Z " fill="rgb(10,8,6)"/><path d=" M 440.039 93.02 C 444.593 93.02 449.146 93.02 453.838 93.02 C 452.896 94.747 451.954 96.475 450.983 98.254 C 450.826 99.04 450.669 99.825 450.507 100.634 C 449.664 100.486 448.822 100.337 447.979 100.188 C 447.51 100.105 447.041 100.022 446.557 99.937 C 445.273 99.682 445.273 99.682 443.845 99.206 C 443.306 98.377 443.306 98.377 442.834 97.362 C 442.676 97.03 442.518 96.697 442.355 96.355 C 441.942 95.399 441.942 95.399 441.466 93.972 C 440.995 93.815 440.524 93.658 440.039 93.496 C 440.039 93.339 440.039 93.182 440.039 93.02 Z " fill="rgb(169,218,231)"/><path d=" M 444.321 99.206 C 446.363 99.677 448.404 100.148 450.507 100.634 C 450.625 101.36 450.743 102.086 450.864 102.834 C 451.304 105.086 451.999 106.43 453.362 108.247 C 453.362 108.561 453.362 108.875 453.362 109.199 C 453.833 109.356 454.304 109.513 454.79 109.675 C 454.319 109.832 453.848 109.989 453.362 110.151 C 453.178 109.916 452.993 109.681 452.803 109.439 C 451.631 108.472 450.963 108.607 449.466 108.693 C 447.072 108.766 445.181 108.462 442.894 107.771 C 443.045 107.446 443.196 107.12 443.351 106.784 C 443.913 105.203 444.041 103.823 444.143 102.15 C 444.202 101.179 444.261 100.207 444.321 99.206 Z " fill="rgb(213,236,243)"/><path d=" M 453.808 110.002 C 454.79 111.102 454.79 111.102 454.939 112.649 C 454.889 113.081 454.84 113.512 454.79 113.957 C 452.072 115.539 449.871 116.457 446.7 115.861 C 445.243 115.058 445.243 115.058 444.321 113.957 C 444.054 112.768 444.054 112.768 444.321 111.578 C 446.727 108.34 450.435 108.064 453.808 110.002 Z " fill="rgb(6,6,6)"/><path d=" M 424.812 93.02 C 419.826 103.854 419.826 103.854 417.198 107.771 C 417.041 107.771 416.884 107.771 416.722 107.771 C 416.533 103.296 416.428 98.853 419.31 95.161 C 421.207 93.311 422.204 92.977 424.812 93.02 Z " fill="rgb(230,197,197)"/><path d=" M 457.688 97.992 C 458.597 98.254 458.597 98.254 459.816 99.504 C 460.602 101.348 460.716 102.091 460.024 103.965 C 458.983 105.124 458.983 105.124 457.645 105.868 C 455.917 105.868 455.066 105.588 453.66 104.589 C 452.636 103.132 452.601 102.383 452.886 100.634 C 454.062 98.381 455.243 97.832 457.688 97.992 Z " fill="rgb(204,204,204)"/><path d=" M 427.667 99.206 C 428.827 99.95 428.827 99.95 429.57 101.109 C 429.915 103.217 429.805 104.098 428.589 105.868 C 427.191 106.82 427.191 106.82 425.466 106.879 C 423.86 106.344 423.86 106.344 422.908 105.333 C 422.291 103.557 422.439 102.443 422.908 100.634 C 424.016 98.725 425.638 98.957 427.667 99.206 Z " fill="rgb(207,207,207)"/><path d=" M 410.536 145.363 C 411.957 146.93 412.158 147.997 412.142 150.092 C 412.146 150.577 412.15 151.062 412.154 151.562 C 411.942 153.142 411.44 154.057 410.536 155.356 C 408.633 153.095 408.633 153.095 408.633 152.025 C 407.838 152.054 407.838 152.054 407.027 152.084 C 405.302 152.025 405.302 152.025 404.35 151.073 C 404.529 149.824 404.529 149.824 404.826 148.694 C 405.297 148.537 405.768 148.38 406.254 148.218 C 406.254 147.904 406.254 147.59 406.254 147.266 C 408.374 147.031 408.374 147.031 410.536 146.79 C 410.536 146.319 410.536 145.848 410.536 145.363 Z " fill="rgb(242,207,159)"/><path d=" M 488.575 145.363 C 488.732 145.677 488.889 145.991 489.051 146.315 C 490.117 146.601 491.185 146.77 492.274 146.952 C 493.489 147.312 493.991 147.697 494.761 148.694 C 494.909 149.913 494.909 149.913 494.761 151.073 C 493.809 152.025 493.809 152.025 492.381 152.114 C 490.954 152.025 490.954 152.025 490.002 151.549 C 489.688 152.334 489.374 153.119 489.051 153.928 C 488.099 152.976 488.099 152.976 487.989 151.46 C 487.996 150.861 488.003 150.262 488.01 149.645 C 488.013 149.047 488.016 148.448 488.019 147.831 C 488.099 146.315 488.099 146.315 488.575 145.363 Z " fill="rgb(206,198,165)"/><path d=" M 473.348 93.02 C 475.396 93.664 476.94 94.533 478.106 96.351 C 479.458 99.651 480.289 102.778 480.01 106.344 C 478.962 105.375 478.284 104.493 477.66 103.212 C 477.499 102.886 477.339 102.56 477.173 102.224 C 477.01 101.886 476.847 101.547 476.679 101.199 C 476.515 100.866 476.352 100.533 476.184 100.19 C 475.863 99.536 475.544 98.88 475.227 98.224 C 474.814 97.382 474.379 96.551 473.943 95.721 C 473.348 94.448 473.348 94.448 473.348 93.02 Z " fill="rgb(210,148,148)"/><path d=" M 491.906 88.262 C 494.094 89.126 494.906 90.462 495.848 92.509 C 496.301 93.823 496.326 94.976 496.188 96.351 C 495.56 96.508 494.932 96.665 494.285 96.827 C 491.947 94.182 490.784 92.393 490.954 88.738 C 491.268 88.581 491.582 88.424 491.906 88.262 Z " fill="rgb(149,1,1)"/><path d=" M 406.73 88.262 C 406.915 91.355 406.335 93.181 404.38 95.578 C 403.399 96.351 403.399 96.351 401.495 96.351 C 401.224 93.022 402.106 91.359 404.113 88.767 C 404.826 88.262 404.826 88.262 406.73 88.262 Z " fill="rgb(149,1,1)"/><path d=" M 494.285 142.984 C 496.86 142.812 496.86 142.812 498.062 143.549 C 498.567 144.411 498.567 144.411 498.567 145.452 C 497.894 147.347 496.83 148.934 495.712 150.597 C 495.428 150.234 495.143 149.871 494.85 149.497 C 493.791 148.151 493.791 148.151 492.381 146.79 C 493.01 145.534 493.638 144.278 494.285 142.984 Z " fill="rgb(2,2,1)"/><path d=" M 479.058 214.747 C 480.485 214.836 480.485 214.836 481.437 215.312 C 481.937 216.735 482.044 217.406 481.407 218.791 C 480.485 219.594 480.485 219.594 479.028 219.773 C 477.63 219.594 477.63 219.594 476.679 218.643 C 476.56 217.215 476.56 217.215 476.679 215.788 C 477.63 214.836 477.63 214.836 479.058 214.747 Z " fill="rgb(51,51,51)"/><path d=" M 456.663 98.076 C 458.446 98.118 458.446 98.118 459.548 99.117 C 460.024 100.158 460.024 100.158 460.024 101.585 C 457.826 101.585 455.627 101.585 453.362 101.585 C 454.014 98.328 454.014 98.328 456.663 98.076 Z " fill="rgb(155,155,155)"/><path d=" M 424.812 93.02 C 424.027 94.59 423.241 96.161 422.432 97.779 C 421.019 97.779 419.606 97.779 418.15 97.779 C 418.794 95.672 419.688 94.751 421.481 93.496 C 422.432 93.02 422.432 93.02 424.812 93.02 Z " fill="rgb(209,145,145)"/><path d=" M 401.971 149.645 C 403.3 150.791 403.826 151.911 404.44 153.541 C 404.603 153.97 404.767 154.399 404.936 154.841 C 405.057 155.168 405.178 155.495 405.302 155.831 C 403.495 155.576 403.044 155.489 401.763 154.077 C 401.02 152.501 401.02 152.501 401.376 150.895 C 401.573 150.482 401.769 150.07 401.971 149.645 Z " fill="rgb(238,204,158)"/><path d=" M 410.536 145.363 C 411.957 146.93 412.158 147.997 412.142 150.092 C 412.146 150.577 412.15 151.062 412.154 151.562 C 411.942 153.142 411.44 154.057 410.536 155.356 C 410.144 154.007 410.023 152.896 410.118 151.497 C 410.141 151.138 410.164 150.779 410.188 150.409 C 410.215 150.04 410.241 149.67 410.269 149.289 C 410.294 148.911 410.318 148.534 410.344 148.145 C 410.406 147.218 410.471 146.29 410.536 145.363 Z " fill="rgb(65,169,190)"/><path d=" M 496.188 149.645 C 496.502 149.803 496.816 149.96 497.14 150.121 C 497.339 151.816 497.121 152.536 496.307 154.077 C 495.954 154.499 495.601 154.921 495.237 155.356 C 494.608 155.356 493.98 155.356 493.333 155.356 C 493.961 153.16 494.862 151.502 496.188 149.645 Z " fill="rgb(236,201,156)"/><path d=" M 419.577 103.013 C 419.734 103.013 419.891 103.013 420.053 103.013 C 420.367 104.426 420.681 105.839 421.005 107.295 C 419.749 107.295 418.493 107.295 417.198 107.295 C 417.983 105.882 418.769 104.469 419.577 103.013 Z " fill="rgb(215,237,242)"/><path d=" M 477.154 102.061 C 477.947 102.041 478.741 102.042 479.534 102.061 C 480.01 102.537 480.01 102.537 480.056 103.416 C 480.041 104.392 480.025 105.368 480.01 106.344 C 478.597 105.133 477.934 103.731 477.154 102.061 Z " fill="rgb(225,187,187)"/><path d=" M 454.79 113.481 C 456.893 114.124 457.808 115.033 459.072 116.812 C 456.452 116.579 456.452 116.579 455.325 115.415 C 454.79 114.433 454.79 114.433 454.79 113.481 Z " fill="rgb(248,233,212)"/><path d=" M 403.399 152.025 C 404.424 153.272 405.017 154.235 405.302 155.831 C 404.517 155.674 403.732 155.517 402.923 155.356 C 402.923 153.452 402.923 153.452 403.399 152.025 Z " fill="rgb(229,195,151)"/><path d=" M 474.299 96.351 C 475.809 98.076 476.407 99.925 477.154 102.061 C 476.526 102.061 475.898 102.061 475.251 102.061 C 474.71 100.031 474.299 98.461 474.299 96.351 Z " fill="rgb(185,218,228)"/><path d=" M 460.024 101.109 C 460.5 102.537 460.5 102.537 460.054 103.578 C 459.804 104.005 459.804 104.005 459.548 104.44 C 458.92 104.283 458.292 104.126 457.645 103.965 C 457.645 103.336 457.645 102.708 457.645 102.061 C 458.43 102.061 459.215 102.061 460.024 102.061 C 460.024 101.747 460.024 101.433 460.024 101.109 Z " fill="rgb(228,228,228)"/><path d=" M 496.188 149.645 C 496.502 149.803 496.816 149.96 497.14 150.121 C 497.14 150.906 497.14 151.692 497.14 152.501 C 496.669 152.658 496.198 152.815 495.712 152.976 C 495.415 152.114 495.415 152.114 495.237 151.073 C 495.551 150.602 495.865 150.131 496.188 149.645 Z " fill="rgb(245,209,161)"/><path d=" M 494.761 142.032 C 497.973 142.389 497.973 142.389 499.043 143.46 C 498.886 143.931 498.729 144.402 498.567 144.887 C 498.381 144.661 498.194 144.436 498.002 144.203 C 496.946 143.292 496.125 143.168 494.761 142.984 C 494.761 142.67 494.761 142.356 494.761 142.032 Z " fill="rgb(142,143,137)"/><path d=" M 404.35 142.508 C 404.35 142.822 404.35 143.136 404.35 143.46 C 404.081 143.517 403.812 143.575 403.534 143.634 C 403.011 143.754 403.011 143.754 402.477 143.876 C 402.129 143.953 401.781 144.03 401.423 144.11 C 400.445 144.33 400.445 144.33 400.068 145.363 C 400.217 144.471 400.217 144.471 400.544 143.46 C 402.08 142.436 402.582 142.412 404.35 142.508 Z " fill="rgb(146,146,139)"/><path d=" M 443.37 113.481 C 443.37 114.909 443.37 114.909 442.18 116.188 C 441.787 116.551 441.395 116.914 440.99 117.288 C 440.833 116.974 440.676 116.66 440.515 116.336 C 441.466 115.385 442.418 114.433 443.37 113.481 Z " fill="rgb(245,233,214)"/></g></g></svg>